<?xml version="1.0" encoding="utf-8"?>
<!-- Generator: Adobe Illustrator 18.1.1, SVG Export Plug-In . SVG Version: 6.00 Build 0)  -->
<svg version="1.1" id="Layer_1" xmlns="http://www.w3.org/2000/svg" xmlns:xlink="http://www.w3.org/1999/xlink" x="0px" y="0px"
	 viewBox="0 0 300 300" enable-background="new 0 0 300 300" xml:space="preserve">
<path stroke="#000000" stroke-miterlimit="10" d="M31.8,274.6h194.7c0.9,0,1.5,0.9,1.5,1.5l0,0c0,12.3-9.9,22.4-22.4,22.4H52.4
	c-12.3,0-22.4-9.9-22.4-22.4l0,0C30.4,275.5,31,274.6,31.8,274.6z"/>
<path d="M223.6,148.3H27.8c-1.8,0-3,1.8-2.1,3.6l20.9,40.5c3.9,7.8,6.6,15.8,7.8,24.5c2.7,17.3,11.4,32.5,24.2,43.5
	c12.6,11.1,29.3,17.6,47.3,17.6c29.9,0,55.4-17.9,66.5-43.8c6,1.2,13.2,2.4,19.7,2.4c34.6,0,62.6-19.7,62.6-44.1
	C274.5,171.5,251.4,152.9,223.6,148.3 M211,230.3c-6,0-11.7-0.9-16.7-2.1c1.2-3.9,2.1-7.8,2.7-11.7c1.2-8.7,3.9-16.7,7.8-24.5
	l19.1-37c22.4,4.2,39.1,19.1,39.1,37C263,213.2,239.7,230.3,211,230.3z"/>
<g>
	<path d="M83.8,133.9c0,0,0.3-0.3,0.9-1.2s1.5-2.1,3-3.3c0.6-0.9,1.2-1.5,2.1-2.4c0.3-0.3,0.9-0.9,1.2-1.5c0.3-0.6,0.9-0.9,1.2-1.5
		c1.5-2.1,3.3-4.5,5.1-7.2c0.9-1.2,1.8-2.7,2.7-4.2c0.3-0.9,0.9-1.5,1.2-2.4s0.9-1.5,1.2-2.4c1.5-3.3,3-6.6,3.9-10.5
		c0.3-1.8,0.6-3.6,0.9-5.7c0-0.9,0-1.8,0-3c0-0.3,0-0.9,0-1.5v-0.8V86l0,0l0,0l0,0v-0.3l-0.3-1.5v-0.3v-0.3V83
		c0-0.3-0.3-0.9-0.3-1.2s-0.3-0.9-0.3-1.5c-0.6-1.8-1.5-3.6-2.4-5.7c-0.9-1.8-2.1-3.9-3-6s-1.8-4.2-2.7-6.6
		c-0.6-2.4-1.2-4.8-1.2-6.9l0,0v-0.3v-0.3v-0.2v-0.6c0-0.6,0-0.9,0-1.5c0-0.3,0-0.6,0-0.9v-0.9c0-0.6,0-1.2,0-1.8
		c0.6-4.5,1.8-8.7,3.6-12.3c1.8-3.6,3.6-6.9,5.7-9.6s4.2-5.1,6-6.9s3.6-3.6,5.1-4.8s2.7-2.1,3.6-2.7s1.2-0.9,1.2-0.9
		s-0.3,0.3-0.9,1.2s-1.5,2.1-2.7,3.6s-2.7,3.3-3.9,5.7c-0.3,0.6-0.9,1.2-1.2,1.8c-0.3,0.6-0.9,1.2-1.2,1.8c-0.3,0.6-0.9,1.2-1.2,1.8
		c-0.3,0.6-0.9,1.2-1.2,2.1c-0.3,0.9-0.9,1.5-1.2,2.1c-0.3,0.9-0.9,1.5-1.2,2.4c-0.3,0.9-0.6,1.5-0.9,2.4c0,0.3-0.3,0.9-0.6,1.2
		c0,0.3-0.3,0.9-0.3,1.2c-1.2,3.3-2.1,6.9-2.1,10.8c0,0.3,0,0.9,0,1.2v0.6c0,0.3,0,0.3,0,0.9c0,0.6,0,0.9,0,1.5v0.9V55v0.3
		c0-0.3,0,0,0,0l0,0l0,0c0,0.9,0.3,1.8,0.6,2.7c0,0.9,0.3,1.8,0.9,2.7c0.6,1.8,1.5,3.6,2.4,5.4c0.9,1.8,2.1,3.9,3,5.7
		c0.9,2.1,2.1,4.2,3,6.6c0.3,1.2,0.9,2.4,0.9,3.6l0.3,0.9v0.3v0.3L115,85v0.3l0,0v0.3l0,0v0.3v0.9c0,0.6,0,1.2,0,1.8
		c0,1.2,0,2.4-0.3,3.6c0,0.6,0,1.2-0.3,1.8c0,0.6,0,1.2-0.3,1.8c-0.3,1.2-0.6,2.1-0.9,3.3c-1.2,4.2-3.3,8.1-5.4,11.4
		c-0.6,0.9-1.2,1.5-1.5,2.4c-0.6,0.9-1.2,1.5-1.8,2.4c-1.2,1.5-2.4,2.7-3.3,3.9c-0.6,0.6-1.2,1.2-1.8,1.8c-0.6,0.6-1.2,1.2-1.5,1.8
		c-0.6,0.6-1.2,0.9-1.5,1.5c-0.6,0.6-0.9,0.9-1.5,1.5c-0.9,0.9-1.8,1.8-3,2.4c-0.9,0.9-1.8,1.5-2.4,2.1c-1.5,1.2-2.7,2.1-3.6,2.7
		C84.4,133.6,83.8,133.9,83.8,133.9z"/>
</g>
<g>
	<path d="M139.2,135.1c0,0,0.3-0.6,0.9-1.5s1.5-2.4,2.7-4.2s2.4-3.9,3.9-6.3c0.9-1.2,1.5-2.7,2.4-3.9c0.9-1.5,1.5-3,2.4-4.5
		c0.3-0.3,0.3-0.9,0.6-1.2c0.3-0.3,0.3-0.9,0.6-1.2c0.3-0.9,0.9-1.5,1.2-2.4s0.9-1.8,1.2-2.7c0.3-0.9,0.9-1.8,1.2-2.7
		c1.5-3.6,2.7-7.8,3.6-11.7c0-0.6,0.3-0.9,0.3-1.5c0-0.3,0-0.6,0-0.9v-0.9c0-1.2,0.3-2.1,0.3-3.3c0-0.6,0-1.2,0-1.5s0-1.2,0-1.5
		s0-1.2,0-1.5c0-0.6,0-1.2,0-1.5s0-0.9-0.3-1.5c0-0.6,0-0.9-0.3-1.5l-0.3-1.5v-0.3l0,0l0,0l0,0v-0.3l-0.4-0.8
		c-0.3-0.6-0.3-0.9-0.6-1.5s-0.3-0.9-0.6-1.5c-0.3-0.9-0.9-2.1-1.5-3c-2.1-3.9-5.1-7.5-7.8-11.4c-1.5-2.1-3-3.9-4.2-6.3
		c-1.2-2.1-2.4-4.5-3.3-7.2c-0.9-2.4-1.2-5.1-1.2-7.5v-0.6V35l0,0c0-0.3,0,0,0-0.3l0,0v-0.3c0-0.6,0-1.2,0-1.5s0-0.6,0-0.9l0.3-0.9
		c0-0.6,0.3-1.2,0.3-1.8c1.2-4.5,3.3-8.4,5.4-11.7c2.4-3.3,4.8-5.7,6.9-7.8c2.4-2.1,4.5-3.6,6-4.8c0.9-0.6,1.8-1.2,2.4-1.5
		c0.6-0.3,1.2-0.9,1.8-1.2c0.9-0.6,1.5-0.9,1.5-0.9s-0.3,0.3-1.2,1.2s-2.1,2.1-3.3,3.6c-1.5,1.5-3,3.6-4.8,6s-3.6,5.1-5.1,8.1
		s-2.7,6.6-3.3,10.2c0,0.3,0,0.9,0,1.2v0.6c0,0.3,0,0.6,0,0.9c0,0.6,0,1.2,0,1.5V35l0,0c0,0,0,0.3,0,0l0,0v0.3V36
		c0.3,1.8,0.6,3.6,1.2,5.4s1.5,3.6,2.7,5.4c0.6,0.9,1.2,1.8,1.8,2.7s1.5,1.8,2.1,2.7c3,3.6,6.3,7.5,8.7,12.3
		c0.6,1.2,1.2,2.4,1.8,3.6c0.3,0.6,0.6,1.2,0.9,1.8c0.3,0.6,0.6,1.5,0.6,2.1l0.3,0.9v0.3v0.3v0.3l0.3,2.1c0,0.6,0.3,1.2,0.3,2.1
		c0,0.6,0.3,1.2,0.3,2.1c0,0.6,0,1.2,0,2.1c0,0.6,0,1.2,0,2.1c0,0.6,0,1.2,0,2.1c0,0.6,0,1.2-0.3,2.1c-0.3,2.7-0.9,5.1-1.5,7.5
		c-1.2,4.8-3.3,9-5.4,12.9c-0.6,0.9-1.2,1.8-1.5,2.7c-0.6,0.9-0.9,1.8-1.5,2.7c-0.6,0.9-1.2,1.5-1.8,2.4c-0.3,0.3-0.6,0.9-0.9,1.2
		c-0.3,0.3-0.6,0.9-0.9,1.2c-0.6,0.9-1.2,1.5-1.8,2.1s-1.2,1.5-1.5,2.1c-1.2,1.2-2.1,2.4-3.3,3.6c-0.9,1.2-2.1,2.1-3,3
		s-1.8,1.8-2.4,2.4c-1.5,1.5-2.7,2.7-3.6,3.3C139.5,134.8,139.2,135.1,139.2,135.1z"/>
</g>
</svg>
