<?xml version="1.0" encoding="utf-8"?>

<svg version="1.1" id="Layer_2" xmlns="http://www.w3.org/2000/svg" xmlns:xlink="http://www.w3.org/1999/xlink" x="0px" y="0px"
	 viewBox="0 0 850.4 850.4" enable-background="new 0 0 850.4 850.4" xml:space="preserve">
<g id="photoSphere">
	<path d="M763,212.8c-14.3-3.8-28.6-7.3-42.8-10.5C665.4,130.1,584.6,78.6,491.7,62c-21.3-3.8-43.3-5.8-65.7-5.8
		c-22.4,0-44.4,2-65.7,5.8c-93,16.7-173.8,68.2-228.7,140.6c-27.3,5.9-42.5,10.3-42.5,10.3c-161.1,242.4,0,439.6,0,439.6
		c18.8,4.7,37.6,8.9,56.3,12.6c54.2,63.3,129.4,108,214.8,123.4c21.3,3.8,43.3,5.8,65.7,5.8c22.4,0,44.4-2,65.7-5.8
		c85.7-15.4,161.1-60.4,215.3-124c35.7-6.7,55.9-12,55.9-12C919.8,417.2,763,212.8,763,212.8z M674.2,192.9
		c-36.3-6.7-71.9-11.6-106.6-15c-11.6-29.9-25.3-56-40.5-77.4C584,118.2,634.5,150.4,674.2,192.9z M426.1,89.6
		c40.5,0,77.4,32.3,105.4,85.3c-77.2-5.5-149-3.9-211.2,0.8C348.3,122.1,385.4,89.6,426.1,89.6z M325,100.5
		c-15.4,21.6-29.2,48.1-40.9,78.3c-41.2,4.1-77.3,9.5-106.9,14.7C217.1,150.8,267.8,118.3,325,100.5z M194.1,673.7
		c32.4,5.2,64.4,8.9,95.6,11.7c10.4,24.5,22.3,46.2,35.3,64.5C275.6,734.5,231,708.2,194.1,673.7z M426.1,760.8
		c-37.2,0-71.4-27.2-98.4-72.7c71.5,4.3,138.4,3,197.3-1C497.9,733.2,463.5,760.8,426.1,760.8z M527.1,749.9
		c13.2-18.6,25.3-40.7,35.8-65.7c36.2-3.3,68.7-7.4,96.4-11.6C622.1,707.6,577.1,734.3,527.1,749.9z M742.7,553.6
		c0,0-0.8,0.6-2.4,1.5c-11.3,6.5-61.8,31.2-141.8,2.8c-8-2.9-16.4-6.3-25-10.3c-29.3-13.6-61.8-34.2-97.3-64.6l-65.9,17.2
		l-100.3-65.9l-41,30.2l-24.2,17.8L197,517.6c0,0-55,21.4-104.3-25.4c-11.8-11.2-23.3-26.4-33.7-46.7c0,0-1-6-2-16c0,0,0,0,0-0.1
		c-3.8-37.9-6.9-133.6,47.5-189.3c0,0,0.9-0.3,2.6-0.7c5.5-1.5,19.5-5.1,40.7-9.5v0c29.4-6.2,72.5-14,125.5-19.9
		c10.5-1.2,21.4-2.3,32.6-3.3c68.9-6.1,151.2-8.5,239.9-0.7c10.8,0.9,21.7,2,32.7,3.3c41.2,4.7,83.5,11.6,126.3,21.4
		c12.6,2.9,25.2,6,37.8,9.4c0,0,6.8,9.1,15.9,24.7c25.6,43.9,69.3,139,30.8,225.6C779.6,512.3,764.6,533.8,742.7,553.6z"/>
	<ellipse transform="matrix(0.7071 -0.7071 0.7071 0.7071 -16.7303 578.2281)" cx="689.6" cy="309.3" rx="30.7" ry="50.2"/>
</g>
</svg>
