<?xml version="1.0" encoding="utf-8"?>
<!-- Generator: Adobe Illustrator 18.1.1, SVG Export Plug-In . SVG Version: 6.00 Build 0)  -->
<svg version="1.1" id="Layer_1" xmlns="http://www.w3.org/2000/svg" xmlns:xlink="http://www.w3.org/1999/xlink" x="0px" y="0px"
	 viewBox="-155 247 300 300" enable-background="new -155 247 300 300" xml:space="preserve">
<path fill="#010101" stroke="#010101" stroke-miterlimit="10" d="M-121.2,520.4H72.1c0.9,0,1.5,0.9,1.5,1.5l0,0
	c0,12.2-9.8,22.2-22.2,22.2h-152.1c-12.2,0-22.2-9.8-22.2-22.2l0,0C-122.6,521.3-122,520.4-121.2,520.4z"/>
<path fill="#010101" d="M69.2,395h-194.4c-1.8,0-3,1.8-2.1,3.6l20.7,40.3c3.9,7.7,6.5,15.6,7.7,24.3c2.7,17.1,11.3,32.3,24,43.3
	c12.5,11,29,17.4,47,17.4c29.6,0,55-17.7,66-43.6c5.9,1.2,13.1,2.4,19.5,2.4c34.3,0,62.2-19.5,62.2-43.9
	C119.8,418.1,96.7,399.7,69.2,395 M56.7,476.4c-5.9,0-11.6-0.9-16.5-2.1c1.2-3.9,2.1-7.7,2.7-11.6c1.2-8.6,3.9-16.5,7.7-24.3
	l18.9-36.7c22.2,4.2,38.8,18.9,38.8,36.7C108.2,459.5,85.1,476.4,56.7,476.4z"/>
<g>
	<path fill="#010101" d="M-69.7,380.8c0,0,0.3-0.3,0.9-1.2c0.6-0.9,1.5-2.1,3-3.3c0.6-0.9,1.2-1.5,2.1-2.4c0.3-0.3,0.9-0.9,1.2-1.5
		c0.3-0.6,0.9-0.9,1.2-1.5c1.5-2.1,3.3-4.5,5-7.1c0.9-1.2,1.8-2.7,2.7-4.2c0.3-0.9,0.9-1.5,1.2-2.4c0.3-0.9,0.9-1.5,1.2-2.4
		c1.5-3.3,3-6.5,3.9-10.4c0.3-1.8,0.6-3.6,0.9-5.6c0-0.9,0-1.8,0-3c0-0.3,0-0.9,0-1.5v-0.9v-0.3l0,0l0,0l0,0v-0.3l-0.3-1.5v-0.3
		v-0.3v-0.6c0-0.3-0.3-0.9-0.3-1.2s-0.3-0.9-0.3-1.5c-0.6-1.8-1.5-3.6-2.4-5.6c-0.9-1.8-2.1-3.9-3-5.9s-1.8-4.2-2.7-6.5
		c-0.6-2.4-1.2-4.8-1.2-6.8l0,0v-0.3v-0.3v-0.3v-0.6c0-0.6,0-0.9,0-1.5c0-0.3,0-0.6,0-0.9v-0.9c0-0.6,0-1.2,0-1.8
		c0.6-4.5,1.8-8.6,3.6-12.2c1.8-3.6,3.6-6.8,5.6-9.5c2.1-2.7,4.2-5,5.9-6.8c1.8-1.8,3.6-3.6,5-4.8c1.5-1.2,2.7-2.1,3.6-2.7
		c0.9-0.6,1.2-0.9,1.2-0.9s-0.3,0.3-0.9,1.2c-0.6,0.9-1.5,2.1-2.7,3.6c-1.2,1.5-2.7,3.3-3.9,5.6c-0.3,0.6-0.9,1.2-1.2,1.8
		c-0.3,0.6-0.9,1.2-1.2,1.8c-0.3,0.6-0.9,1.2-1.2,1.8c-0.3,0.6-0.9,1.2-1.2,2.1c-0.3,0.9-0.9,1.5-1.2,2.1c-0.3,0.9-0.9,1.5-1.2,2.4
		c-0.3,0.9-0.6,1.5-0.9,2.4c0,0.3-0.3,0.9-0.6,1.2c0,0.3-0.3,0.9-0.3,1.2c-1.2,3.3-2.1,6.8-2.1,10.7c0,0.3,0,0.9,0,1.2v0.6
		c0,0.3,0,0.3,0,0.9c0,0.6,0,0.9,0,1.5v0.9v0.3v0.3c0-0.3,0,0,0,0l0,0l0,0c0,0.9,0.3,1.8,0.6,2.7c0,0.9,0.3,1.8,0.9,2.7
		c0.6,1.8,1.5,3.6,2.4,5.3c0.9,1.8,2.1,3.9,3,5.6c0.9,2.1,2.1,4.2,3,6.5c0.3,1.2,0.9,2.4,0.9,3.6l0.3,0.9v0.3v0.3l0.3,1.5v0.3l0,0
		v0.3l0,0v0.3v0.9c0,0.6,0,1.2,0,1.8c0,1.2,0,2.4-0.3,3.6c0,0.6,0,1.2-0.3,1.8c0,0.6,0,1.2-0.3,1.8c-0.3,1.2-0.6,2.1-0.9,3.3
		c-1.2,4.2-3.3,8-5.3,11.3c-0.6,0.9-1.2,1.5-1.5,2.4c-0.6,0.9-1.2,1.5-1.8,2.4c-1.2,1.5-2.4,2.7-3.3,3.9c-0.6,0.6-1.2,1.2-1.8,1.8
		c-0.6,0.6-1.2,1.2-1.5,1.8c-0.6,0.6-1.2,0.9-1.5,1.5c-0.6,0.6-0.9,0.9-1.5,1.5c-0.9,0.9-1.8,1.8-3,2.4c-0.9,0.9-1.8,1.5-2.4,2.1
		c-1.5,1.2-2.7,2.1-3.6,2.7C-69.1,380.5-69.7,380.8-69.7,380.8z"/>
</g>
<g>
	<path fill="#010101" d="M-14.6,381.9c0,0,0.3-0.6,0.9-1.5c0.6-0.9,1.5-2.4,2.7-4.2c1.2-1.8,2.4-3.9,3.9-6.2
		c0.9-1.2,1.5-2.7,2.4-3.9c0.9-1.5,1.5-3,2.4-4.5c0.3-0.3,0.3-0.9,0.6-1.2c0.3-0.3,0.3-0.9,0.6-1.2c0.3-0.9,0.9-1.5,1.2-2.4
		c0.3-0.9,0.9-1.8,1.2-2.7c0.3-0.9,0.9-1.8,1.2-2.7c1.5-3.6,2.7-7.7,3.6-11.6c0-0.6,0.3-0.9,0.3-1.5c0-0.3,0-0.6,0-0.9v-0.9
		c0-1.2,0.3-2.1,0.3-3.3c0-0.6,0-1.2,0-1.5c0-0.3,0-1.2,0-1.5c0-0.3,0-1.2,0-1.5c0-0.6,0-1.2,0-1.5s0-0.9-0.3-1.5
		c0-0.6,0-0.9-0.3-1.5l-0.3-1.5v-0.3l0,0l0,0l0,0v-0.3l-0.3-0.9c-0.3-0.6-0.3-0.9-0.6-1.5c-0.3-0.6-0.3-0.9-0.6-1.5
		c-0.3-0.9-0.9-2.1-1.5-3c-2.1-3.9-5-7.4-7.7-11.3c-1.5-2.1-3-3.9-4.2-6.2c-1.2-2.1-2.4-4.5-3.3-7.1c-0.9-2.4-1.2-5-1.2-7.4v-0.6
		v-0.3l0,0c0-0.3,0,0,0-0.3l0,0v-0.3c0-0.6,0-1.2,0-1.5s0-0.6,0-0.9l0.3-0.9c0-0.6,0.3-1.2,0.3-1.8c1.2-4.5,3.3-8.3,5.3-11.6
		c2.4-3.3,4.8-5.6,6.8-7.7c2.4-2.1,4.5-3.6,5.9-4.8c0.9-0.6,1.8-1.2,2.4-1.5c0.6-0.3,1.2-0.9,1.8-1.2c0.9-0.6,1.5-0.9,1.5-0.9
		s-0.3,0.3-1.2,1.2c-0.9,0.9-2.1,2.1-3.3,3.6c-1.5,1.5-3,3.6-4.8,5.9s-3.6,5-5,8c-1.5,3-2.7,6.5-3.3,10.1c0,0.3,0,0.9,0,1.2v0.6
		c0,0.3,0,0.6,0,0.9c0,0.6,0,1.2,0,1.5v0.3l0,0c0,0,0,0.3,0,0l0,0v0.3v0.6c0.3,1.8,0.6,3.6,1.2,5.3s1.5,3.6,2.7,5.3
		c0.6,0.9,1.2,1.8,1.8,2.7c0.6,0.9,1.5,1.8,2.1,2.7c3,3.6,6.2,7.4,8.6,12.2c0.6,1.2,1.2,2.4,1.8,3.6c0.3,0.6,0.6,1.2,0.9,1.8
		c0.3,0.6,0.6,1.5,0.6,2.1l0.3,0.9v0.3v0.3v0.3l0.3,2.1c0,0.6,0.3,1.2,0.3,2.1c0,0.6,0.3,1.2,0.3,2.1c0,0.6,0,1.2,0,2.1
		c0,0.6,0,1.2,0,2.1c0,0.6,0,1.2,0,2.1c0,0.6,0,1.2-0.3,2.1c-0.3,2.7-0.9,5-1.5,7.4c-1.2,4.8-3.3,8.9-5.3,12.8
		c-0.6,0.9-1.2,1.8-1.5,2.7c-0.6,0.9-0.9,1.8-1.5,2.7s-1.2,1.5-1.8,2.4c-0.3,0.3-0.6,0.9-0.9,1.2c-0.3,0.3-0.6,0.9-0.9,1.2
		c-0.6,0.9-1.2,1.5-1.8,2.1s-1.2,1.5-1.5,2.1c-1.2,1.2-2.1,2.4-3.3,3.6c-0.9,1.2-2.1,2.1-3,3c-0.9,0.9-1.8,1.8-2.4,2.4
		c-1.5,1.5-2.7,2.7-3.6,3.3C-14.3,381.7-14.6,381.9-14.6,381.9z"/>
</g>
</svg>
