<?xml version="1.0" encoding="utf-8"?>
<!-- Generator: Adobe Illustrator 18.1.1, SVG Export Plug-In . SVG Version: 6.00 Build 0)  -->
<svg version="1.1" id="Layer_1" xmlns="http://www.w3.org/2000/svg" xmlns:xlink="http://www.w3.org/1999/xlink" x="0px" y="0px"
	 viewBox="-155 247 300 300" enable-background="new -155 247 300 300" xml:space="preserve">
<path stroke="#000000" stroke-miterlimit="10" d="M-123.4,521.8H71.8c0.9,0,1.5,0.9,1.5,1.5l0,0c0,12.3-9.9,22.4-22.4,22.4h-153.7
	c-12.3,0-22.4-9.9-22.4-22.4l0,0C-124.9,522.7-124.3,521.8-123.4,521.8z"/>
<path d="M68.9,395.1h-196.4c-1.8,0-3,1.8-2.1,3.6l20.9,40.7c3.9,7.8,6.6,15.8,7.8,24.5c2.7,17.3,11.4,32.6,24.2,43.7
	c12.6,11.1,29.3,17.6,47.5,17.6c29.9,0,55.6-17.9,66.7-44c6,1.2,13.2,2.4,19.7,2.4c34.7,0,62.8-19.7,62.8-44.3
	C120,418.4,96.7,399.8,68.9,395.1 M56.3,477.3c-6,0-11.7-0.9-16.7-2.1c1.2-3.9,2.1-7.8,2.7-11.7c1.2-8.7,3.9-16.7,7.8-24.5
	l19.1-37.1c22.4,4.2,39.2,19.1,39.2,37.1C108.3,460.2,85,477.3,56.3,477.3z"/>
<g>
	<path d="M-71.4,380.7c0,0,0.3-0.3,0.9-1.2c0.6-0.9,1.5-2.1,3-3.3c0.6-0.9,1.2-1.5,2.1-2.4c0.3-0.3,0.9-0.9,1.2-1.5
		c0.3-0.6,0.9-0.9,1.2-1.5c1.5-2.1,3.3-4.5,5.1-7.2c0.9-1.2,1.8-2.7,2.7-4.2c0.3-0.9,0.9-1.5,1.2-2.4c0.3-0.9,0.9-1.5,1.2-2.4
		c1.5-3.3,3-6.6,3.9-10.5c0.3-1.8,0.6-3.6,0.9-5.7c0-0.9,0-1.8,0-3c0-0.3,0-0.9,0-1.5v-0.9v-0.3l0,0l0,0l0,0v-0.3l-0.3-1.5v-0.3
		v-0.3v-0.6c0-0.3-0.3-0.9-0.3-1.2s-0.3-0.9-0.3-1.5c-0.6-1.8-1.5-3.6-2.4-5.7c-0.9-1.8-2.1-3.9-3-6c-0.9-2.1-1.8-4.2-2.7-6.6
		c-0.6-2.4-1.2-4.8-1.2-6.9l0,0v-0.3v-0.3v-0.3v-0.6c0-0.6,0-0.9,0-1.5c0-0.3,0-0.6,0-0.9v-0.9c0-0.6,0-1.2,0-1.8
		c0.6-4.5,1.8-8.7,3.6-12.3c1.8-3.6,3.6-6.9,5.7-9.6c2.1-2.7,4.2-5.1,6-6.9c1.8-1.8,3.6-3.6,5.1-4.8c1.5-1.2,2.7-2.1,3.6-2.7
		c0.9-0.6,1.2-0.9,1.2-0.9s-0.3,0.3-0.9,1.2c-0.6,0.9-1.5,2.1-2.7,3.6c-1.2,1.5-2.7,3.3-3.9,5.7c-0.3,0.6-0.9,1.2-1.2,1.8
		c-0.3,0.6-0.9,1.2-1.2,1.8c-0.3,0.6-0.9,1.2-1.2,1.8c-0.3,0.6-0.9,1.2-1.2,2.1c-0.3,0.9-0.9,1.5-1.2,2.1c-0.3,0.9-0.9,1.5-1.2,2.4
		s-0.6,1.5-0.9,2.4c0,0.3-0.3,0.9-0.6,1.2c0,0.3-0.3,0.9-0.3,1.2c-1.2,3.3-2.1,6.9-2.1,10.8c0,0.3,0,0.9,0,1.2v0.6
		c0,0.3,0,0.3,0,0.9c0,0.6,0,0.9,0,1.5v0.9v0.3v0.3c0-0.3,0,0,0,0l0,0l0,0c0,0.9,0.3,1.8,0.6,2.7c0,0.9,0.3,1.8,0.9,2.7
		c0.6,1.8,1.5,3.6,2.4,5.4c0.9,1.8,2.1,3.9,3,5.7c0.9,2.1,2.1,4.2,3,6.6c0.3,1.2,0.9,2.4,0.9,3.6l0.3,0.9v0.3v0.3l0.3,1.5v0.3l0,0
		v0.3l0,0v0.3v0.9c0,0.6,0,1.2,0,1.8c0,1.2,0,2.4-0.3,3.6c0,0.6,0,1.2-0.3,1.8c0,0.6,0,1.2-0.3,1.8c-0.3,1.2-0.6,2.1-0.9,3.3
		c-1.2,4.2-3.3,8.1-5.4,11.4c-0.6,0.9-1.2,1.5-1.5,2.4c-0.6,0.9-1.2,1.5-1.8,2.4c-1.2,1.5-2.4,2.7-3.3,3.9c-0.6,0.6-1.2,1.2-1.8,1.8
		s-1.2,1.2-1.5,1.8c-0.6,0.6-1.2,0.9-1.5,1.5c-0.6,0.6-0.9,0.9-1.5,1.5c-0.9,0.9-1.8,1.8-3,2.4c-0.9,0.9-1.8,1.5-2.4,2.1
		c-1.5,1.2-2.7,2.1-3.6,2.7C-70.8,380.4-71.4,380.7-71.4,380.7z"/>
</g>
<g>
	<path d="M-15.8,381.9c0,0,0.3-0.6,0.9-1.5c0.6-0.9,1.5-2.4,2.7-4.2c1.2-1.8,2.4-3.9,3.9-6.3c0.9-1.2,1.5-2.7,2.4-3.9
		c0.9-1.5,1.5-3,2.4-4.5c0.3-0.3,0.3-0.9,0.6-1.2s0.3-0.9,0.6-1.2c0.3-0.9,0.9-1.5,1.2-2.4c0.3-0.9,0.9-1.8,1.2-2.7
		c0.3-0.9,0.9-1.8,1.2-2.7c1.5-3.6,2.7-7.8,3.6-11.7c0-0.6,0.3-0.9,0.3-1.5c0-0.3,0-0.6,0-0.9v-0.9c0-1.2,0.3-2.1,0.3-3.3
		c0-0.6,0-1.2,0-1.5s0-1.2,0-1.5s0-1.2,0-1.5c0-0.6,0-1.2,0-1.5s0-0.9-0.3-1.5c0-0.6,0-0.9-0.3-1.5l-0.3-1.5v-0.3l0,0l0,0l0,0v-0.3
		l-0.3-0.9c-0.3-0.6-0.3-0.9-0.6-1.5s-0.3-0.9-0.6-1.5c-0.3-0.9-0.9-2.1-1.5-3c-2.1-3.9-5.1-7.5-7.8-11.4c-1.5-2.1-3-3.9-4.2-6.3
		c-1.2-2.1-2.4-4.5-3.3-7.2c-0.9-2.4-1.2-5.1-1.2-7.5V282v-0.3l0,0c0-0.3,0,0,0-0.3l0,0v-0.3c0-0.6,0-1.2,0-1.5s0-0.6,0-0.9l0.3-0.9
		c0-0.6,0.3-1.2,0.3-1.8c1.2-4.5,3.3-8.4,5.4-11.7c2.4-3.3,4.8-5.7,6.9-7.8c2.4-2.1,4.5-3.6,6-4.8c0.9-0.6,1.8-1.2,2.4-1.5
		c0.6-0.3,1.2-0.9,1.8-1.2c0.9-0.6,1.5-0.9,1.5-0.9s-0.3,0.3-1.2,1.2c-0.9,0.9-2.1,2.1-3.3,3.6c-1.5,1.5-3,3.6-4.8,6
		c-1.8,2.4-3.6,5.1-5.1,8.1c-1.5,3-2.7,6.6-3.3,10.2c0,0.3,0,0.9,0,1.2v0.6c0,0.3,0,0.6,0,0.9c0,0.6,0,1.2,0,1.5v0.3l0,0
		c0,0,0,0.3,0,0l0,0v0.3v0.6c0.3,1.8,0.6,3.6,1.2,5.4c0.6,1.8,1.5,3.6,2.7,5.4c0.6,0.9,1.2,1.8,1.8,2.7s1.5,1.8,2.1,2.7
		c3,3.6,6.3,7.5,8.7,12.3c0.6,1.2,1.2,2.4,1.8,3.6c0.3,0.6,0.6,1.2,0.9,1.8c0.3,0.6,0.6,1.5,0.6,2.1l0.3,0.9v0.3v0.3v0.3l0.3,2.1
		c0,0.6,0.3,1.2,0.3,2.1c0,0.6,0.3,1.2,0.3,2.1c0,0.6,0,1.2,0,2.1c0,0.6,0,1.2,0,2.1c0,0.6,0,1.2,0,2.1c0,0.6,0,1.2-0.3,2.1
		c-0.3,2.7-0.9,5.1-1.5,7.5c-1.2,4.8-3.3,9-5.4,12.9c-0.6,0.9-1.2,1.8-1.5,2.7c-0.6,0.9-0.9,1.8-1.5,2.7c-0.6,0.9-1.2,1.5-1.8,2.4
		c-0.3,0.3-0.6,0.9-0.9,1.2c-0.3,0.3-0.6,0.9-0.9,1.2c-0.6,0.9-1.2,1.5-1.8,2.1s-1.2,1.5-1.5,2.1c-1.2,1.2-2.1,2.4-3.3,3.6
		c-0.9,1.2-2.1,2.1-3,3c-0.9,0.9-1.8,1.8-2.4,2.4c-1.5,1.5-2.7,2.7-3.6,3.3C-15.5,381.6-15.8,381.9-15.8,381.9z"/>
</g>
</svg>
